<svg width="32" height="32" viewBox="0 0 260 259" fill="none" xmlns="http://www.w3.org/2000/svg">
<path d="M252.7 44.7C249.4 36.2 245 29 237.8 21.8C230.6 14.6 223.4 10.2 214.9 6.89999C206.7 3.69999 197.2 1.49999 183.5 0.899994C169.7 0.299994 165.3 0.100006 130.1 0.100006C94.9 0.100006 90.5 0.199994 76.7 0.899994C62.9 1.49999 53.5 3.69999 45.3 6.89999C36.8 10.2 29.6 14.6 22.4 21.8C15.2 29 10.8 36.2 7.50002 44.7C4.30002 52.9 2.10002 62.4 1.50002 76.1C0.900015 89.9 0.700012 94.3 0.700012 129.5C0.700012 164.7 0.800015 169.1 1.50002 182.9C2.10002 196.7 4.30002 206.1 7.50002 214.3C10.8 222.8 15.2 230 22.4 237.2C29.6 244.4 36.8 248.8 45.3 252.1C53.5 255.3 63 257.5 76.7 258.1C90.5 258.7 94.9 258.9 130.1 258.9C165.3 258.9 169.7 258.8 183.5 258.1C197.3 257.5 206.7 255.3 214.9 252.1C223.4 248.8 230.6 244.4 237.8 237.2C245 230 249.4 222.8 252.7 214.3C255.9 206.1 258.1 196.6 258.7 182.9C259.3 169.1 259.5 164.7 259.5 129.5C259.5 94.3 259.4 89.9 258.7 76.1C258.1 62.3 255.9 52.9 252.7 44.7ZM235.4 181.8C234.8 194.4 232.7 201.3 230.9 205.8C228.6 211.8 225.7 216.2 221.2 220.7C216.7 225.2 212.4 228 206.3 230.4C201.7 232.2 194.9 234.3 182.3 234.9C168.6 235.5 164.6 235.7 130 235.7C95.4 235.7 91.3 235.6 77.7 234.9C65.1 234.3 58.2 232.2 53.7 230.4C47.7 228.1 43.3 225.2 38.8 220.7C34.3 216.2 31.5 211.9 29.1 205.8C27.3 201.2 25.2 194.4 24.6 181.8C24 168.1 23.8 164 23.8 129.5C23.8 95 23.9 90.8 24.6 77.2C25.2 64.6 27.3 57.7 29.1 53.2C31.4 47.2 34.3 42.8 38.8 38.3C43.3 33.8 47.6 31 53.7 28.6C58.3 26.8 65.1 24.7 77.7 24.1C91.4 23.5 95.5 23.3 130 23.3C164.5 23.3 168.7 23.4 182.3 24.1C194.9 24.7 201.8 26.8 206.3 28.6C212.3 30.9 216.7 33.8 221.2 38.3C225.7 42.8 228.5 47.1 230.9 53.2C232.7 57.8 234.8 64.6 235.4 77.2C236 90.9 236.2 95 236.2 129.5C236.2 164 236 168.2 235.4 181.8Z" fill="white"/>
<path d="M130 63C93.3 63 63.5 92.8 63.5 129.5C63.5 166.2 93.3 196 130 196C166.7 196 196.5 166.2 196.5 129.5C196.5 92.8 166.7 63 130 63ZM130 172.7C106.2 172.7 86.8 153.4 86.8 129.5C86.8 105.7 106.1 86.3 130 86.3C153.9 86.3 173.2 105.6 173.2 129.5C173.2 153.3 153.8 172.7 130 172.7Z" fill="white"/>
<path d="M199.1 75.9C207.66 75.9 214.6 68.9604 214.6 60.4C214.6 51.8396 207.66 44.9 199.1 44.9C190.54 44.9 183.6 51.8396 183.6 60.4C183.6 68.9604 190.54 75.9 199.1 75.9Z" fill="white"/>
</svg>
